<?xml version="1.0" encoding="UTF-8"?>
<svg width="20px" height="20px" viewBox="0 0 20 20" version="1.1" xmlns="http://www.w3.org/2000/svg" xmlns:xlink="http://www.w3.org/1999/xlink">
    <title>mask-icon</title>
    <g id="mask-icon" stroke="none" stroke-width="1" fill="none" fill-rule="evenodd">
        <g id="data_thresholding_black_24dp">            
            <g id="Group" transform="translate(2.000000, 2.000000)" fill="#FFFFFF" fill-rule="nonzero">
                <path d="M14.2222222,0 L1.77777778,0 C0.8,0 0,0.8 0,1.77777778 L0,14.2222222 C0,15.2 0.8,16 1.77777778,16 L14.2222222,16 C15.2,16 16,15.2 16,14.2222222 L16,1.77777778 C16,0.8 15.2,0 14.2222222,0 Z M14.2222222,14.2222222 L12.6844444,14.2222222 L14.2222222,12.6844444 L14.2222222,14.2222222 Z M14.2222222,11.5555556 L13.4666667,11.5555556 L10.8,14.2222222 L9.36,14.2222222 L12.0266667,11.5555556 L10.1422222,11.5555556 L7.47555556,14.2222222 L6.04444444,14.2222222 L8.71111111,11.5555556 L6.82666667,11.5555556 L4.16,14.2222222 L2.52444444,14.2222222 L5.19111111,11.5555556 L3.30666667,11.5555556 L1.77777778,13.0844444 L1.77777778,1.77777778 L14.2222222,1.77777778 L14.2222222,11.5555556 Z" id="Shape"></path>
                <polygon id="Path" points="6.81777778 7.11111111 8.59555556 8.88888889 13.1111111 4.36444444 11.8577778 3.11111111 8.59555556 6.37333333 6.81777778 4.59555556 2.88888889 8.52444444 4.14222222 9.77777778"></polygon>
            </g>
        </g>
    </g>
</svg>