<?xml version="1.0" encoding="UTF-8"?>
<svg width="20px" height="20px" viewBox="0 0 20 20" version="1.1" xmlns="http://www.w3.org/2000/svg" xmlns:xlink="http://www.w3.org/1999/xlink">
    <title>select-icon</title>
    <g id="select-icon" stroke="none" stroke-width="1" fill="none" fill-rule="evenodd">
        <g id="highlight_alt_black_24dp">
            <path d="M13.6666667,4.66666667 L12,4.66666667 L12,3 L13.6666667,3 L13.6666667,4.66666667 Z M12,13 L12,18 L13.9083333,16.0916667 L15.825,18 L17,16.825 L15.0916667,14.9166667 L17,13 L12,13 Z M15.3333333,8 L17,8 L17,6.33333333 L15.3333333,6.33333333 L15.3333333,8 Z M15.3333333,11.3333333 L17,11.3333333 L17,9.66666667 L15.3333333,9.66666667 L15.3333333,11.3333333 Z M8.66666667,18 L10.3333333,18 L10.3333333,16.3333333 L8.66666667,16.3333333 L8.66666667,18 Z M5.33333333,4.66666667 L7,4.66666667 L7,3 L5.33333333,3 L5.33333333,4.66666667 Z M2,14.6666667 L3.66666667,14.6666667 L3.66666667,13 L2,13 L2,14.6666667 Z M3.66666667,18 L3.66666667,16.3333333 L2,16.3333333 C2,17.25 2.75,18 3.66666667,18 Z M15.3333333,3 L15.3333333,4.66666667 L17,4.66666667 C17,3.75 16.25,3 15.3333333,3 Z M8.66666667,4.66666667 L10.3333333,4.66666667 L10.3333333,3 L8.66666667,3 L8.66666667,4.66666667 Z M2,8 L3.66666667,8 L3.66666667,6.33333333 L2,6.33333333 L2,8 Z M5.33333333,18 L7,18 L7,16.3333333 L5.33333333,16.3333333 L5.33333333,18 Z M2,11.3333333 L3.66666667,11.3333333 L3.66666667,9.66666667 L2,9.66666667 L2,11.3333333 Z M2,4.66666667 L3.66666667,4.66666667 L3.66666667,3 C2.75,3 2,3.75 2,4.66666667 Z" id="Shape" fill="#FFFFFF"></path>
        </g>
    </g>
</svg>